<?xml version="1.0" encoding="UTF-8" standalone="no"?>
<!-- Created with Inkscape (http://www.inkscape.org/) -->

<svg
    xmlns:dc="http://purl.org/dc/elements/1.1/"
    xmlns:cc="http://creativecommons.org/ns#"
    xmlns:rdf="http://www.w3.org/1999/02/22-rdf-syntax-ns#"
    xmlns:svg="http://www.w3.org/2000/svg"
    xmlns="http://www.w3.org/2000/svg"
    xmlns:sodipodi="http://sodipodi.sourceforge.net/DTD/sodipodi-0.dtd"
    xmlns:inkscape="http://www.inkscape.org/namespaces/inkscape"
    width="464.48257"
    height="536.3429"
    id="svg2"
    version="1.1"
    inkscape:version="0.48.3.1 r9886"
    sodipodi:docname="ifb-hex.svg">
   <defs
       id="defs4" />
   <sodipodi:namedview
       id="base"
       pagecolor="#ffffff"
       bordercolor="#666666"
       borderopacity="1.0"
       inkscape:pageopacity="0.0"
       inkscape:pageshadow="2"
       inkscape:zoom="0.49497475"
       inkscape:cx="-269.34235"
       inkscape:cy="213.64705"
       inkscape:document-units="px"
       inkscape:current-layer="layer1"
       showgrid="false"
       fit-margin-top="0"
       fit-margin-left="0"
       fit-margin-right="0"
       fit-margin-bottom="0"
       inkscape:window-width="1276"
       inkscape:window-height="789"
       inkscape:window-x="0"
       inkscape:window-y="27"
       inkscape:window-maximized="0"
       inkscape:snap-center="true" />
   <metadata
       id="metadata7">
      <rdf:RDF>
         <cc:Work
             rdf:about="">
            <dc:format>image/svg+xml</dc:format>
            <dc:type
                rdf:resource="http://purl.org/dc/dcmitype/StillImage" />
            <dc:title></dc:title>
         </cc:Work>
      </rdf:RDF>
   </metadata>
   <g
       inkscape:label="Layer 1"
       inkscape:groupmode="layer"
       id="layer1"
       transform="translate(-14.872436,-158.04019)">
      <path
          sodipodi:type="star"
          style="fill:none;stroke:#000000;stroke-width:74.24121094;stroke-miterlimit:4;stroke-opacity:1;stroke-dasharray:none"
          id="path2985"
          sodipodi:sides="6"
          sodipodi:cx="362.85715"
          sodipodi:cy="532.36218"
          sodipodi:r1="454.86038"
          sodipodi:r2="393.92065"
          sodipodi:arg1="-2.6179939"
          sodipodi:arg2="-2.0943951"
          inkscape:flatsided="true"
          inkscape:rounded="0"
          inkscape:randomized="0"
          d="M -31.063504,304.932 362.85714,77.501801 756.77779,304.93198 756.7778,759.79236 362.85716,987.22256 -31.063494,759.79238 z"
          transform="matrix(0.53878429,0,0,0.53878429,51.61079,139.38478)" />
      <g
          transform="matrix(1.8054011,0,0,1.8054011,30.069458,28.573571)"
          style="font-size:144px;font-style:normal;font-variant:normal;font-weight:normal;font-stretch:normal;line-height:125%;letter-spacing:0px;word-spacing:0px;fill:#000000;fill-opacity:1;stroke:none;font-family:Comfortaa;-inkscape-font-specification:Comfortaa"
          id="flowRoot3774">
         <path
             d="m 27.40625,169.625 c -1.1e-5,-1.54677 0.539051,-2.85927 1.617187,-3.9375 1.124987,-1.12489 2.460923,-1.68739 4.007813,-1.6875 1.546857,1.1e-4 2.859355,0.56261 3.9375,1.6875 1.124978,1.07823 1.687477,2.39073 1.6875,3.9375 l 0,101.25 c -2.3e-5,1.54688 -0.562522,2.88282 -1.6875,4.00781 -1.078145,1.07813 -2.390643,1.61719 -3.9375,1.61719 -1.54689,0 -2.882826,-0.53906 -4.007813,-1.61719 -1.078136,-1.12499 -1.617198,-2.46093 -1.617187,-4.00781 l 0,-101.25"
             style="fill:#000000;fill-opacity:1"
             id="path3831" />
         <path
             d="m 61.15625,164 67.5,0 c 1.54679,1.1e-4 2.85929,0.56261 3.9375,1.6875 1.12492,1.07823 1.68742,2.39073 1.6875,3.9375 -8e-5,1.54698 -0.56258,2.88292 -1.6875,4.00781 -1.07821,1.07823 -2.39071,1.61729 -3.9375,1.61719 l -61.875,0 0,39.375 45,0 c 1.54681,6e-5 2.85931,0.56256 3.9375,1.6875 1.12493,1.07818 1.68743,2.39068 1.6875,3.9375 -7e-5,1.54693 -0.56257,2.88287 -1.6875,4.00781 -1.07819,1.07818 -2.39069,1.61724 -3.9375,1.61719 l -45,0 0,45 c -1.7e-5,1.54688 -0.562516,2.88282 -1.6875,4.00781 -1.078139,1.07813 -2.390638,1.61719 -3.9375,1.61719 -1.546885,0 -2.882821,-0.53906 -4.007813,-1.61719 -1.078131,-1.12499 -1.617193,-2.46093 -1.617187,-4.00781 l 0,-101.25 c -6e-6,-1.54677 0.539056,-2.85927 1.617187,-3.9375 1.124992,-1.12489 2.460928,-1.68739 4.007813,-1.6875"
             style="fill:#000000;fill-opacity:1"
             id="path3833" />
         <path
             d="m 156.78125,175.25 0,33.75 16.875,0 c 4.64059,7e-5 8.60152,-1.64056 11.88281,-4.92188 3.32808,-3.32804 4.99214,-7.31242 4.99219,-11.95312 -5e-5,-4.64054 -1.66411,-8.60147 -4.99219,-11.88281 -3.28129,-3.32803 -7.24222,-4.99209 -11.88281,-4.99219 l -16.875,0 m 0,45 0,45 22.5,0 c 6.23433,10e-6 11.5312,-2.17967 15.89062,-6.53906 4.4062,-4.40623 6.60932,-9.72654 6.60938,-15.96094 -6e-5,-6.23434 -2.20318,-11.5312 -6.60938,-15.89063 -4.35942,-4.40619 -9.65629,-6.60931 -15.89062,-6.60937 l -22.5,0 m -5.625,-56.25 22.5,0 c 7.78121,1.1e-4 14.41401,2.7423 19.89844,8.22656 5.48431,5.48448 8.2265,12.11728 8.22656,19.89844 -6e-5,7.78133 -2.74225,14.41413 -8.22656,19.89844 3.46869,1.64069 6.67962,3.91412 9.63281,6.82031 6.56243,6.60943 9.84368,14.57817 9.84375,23.90625 -7e-5,9.32815 -3.30476,17.29689 -9.91406,23.90625 -6.56256,6.5625 -14.50786,9.84375 -23.83594,9.84375 l -28.125,0 c -1.54688,0 -2.88282,-0.53906 -4.00781,-1.61719 -1.07813,-1.12499 -1.6172,-2.46093 -1.61719,-4.00781 l 0,-101.25 c -1e-5,-1.54677 0.53906,-2.85927 1.61719,-3.9375 1.12499,-1.12489 2.46093,-1.68739 4.00781,-1.6875"
             style="fill:#000000;fill-opacity:1"
             id="path3835" />
      </g>
   </g>
</svg>
