<!-- Created with Inkscape (http://www.inkscape.org/) -->
<svg id="svg2" xmlns:rdf="http://www.w3.org/1999/02/22-rdf-syntax-ns#" xmlns="http://www.w3.org/2000/svg" viewBox="0 0 464.48 536.34" version="1.1" xmlns:cc="http://creativecommons.org/ns#" xmlns:dc="http://purl.org/dc/elements/1.1/">
 <metadata id="metadata7">
  <rdf:RDF>
   <cc:Work rdf:about="">
    <dc:format>image/svg+xml</dc:format>
    <dc:type rdf:resource="http://purl.org/dc/dcmitype/StillImage"/>
    <dc:title/>
   </cc:Work>
  </rdf:RDF>
 </metadata>
 <g id="layer1" transform="translate(-14.872436,-158.04019)">
  <path id="path2985" fill="none" transform="matrix(0.53878429,0,0,0.53878429,51.61079,139.38478)" stroke="#000" stroke-dasharray="none" stroke-miterlimit="4" stroke-width="74.24121094" d="M-31.064,304.93,362.86,77.502,756.78,304.93,756.78,759.79,362.86,987.22-31.063,759.79z"/>
  <g id="flowRoot2991" style="letter-spacing:0px;word-spacing:0px;" font-weight="normal" transform="matrix(1.5658321,0,0,1.5658321,48.600495,45.654496)" font-size="40px" font-style="normal" font-family="Sans" line-height="125%" fill="#000">
   <path id="path3019" d="m29.711,311.73c0.00003-3.2344,1.6172-5.2735,4.8516-6.1172,0.89065-0.23441,1.8985-0.35159,3.0234-0.35156,1.0781-0.00003,2.3672,0.16403,3.8672,0.49219,1.4531,0.37496,2.9063,0.7734,4.3594,1.1953,3.8438,1.1718,6.5859,1.7578,8.2266,1.7578,1.5938-0.00004,3.0234-0.23441,4.2891-0.70312,1.2656-0.42191,2.4375-1.3594,3.5156-2.8125,1.125-1.4063,2.2031-3.4219,3.2344-6.0469,1.0781-2.5782,2.2031-6.0235,3.375-10.336s2.4609-9.6094,3.8672-15.891c1.4062-6.2812,3.0234-13.781,4.8516-22.5,1.875-8.7187,3.9844-18.797,6.3281-30.234,2.3906-11.437,4.4062-21.094,6.0469-28.969,1.6875-7.9218,2.5312-12.351,2.5312-13.289-0.000032-0.98428-0.28128-1.8515-0.84375-2.6016-0.56253-0.7499-1.3594-1.3124-2.3906-1.6875-1.6407-0.65615-4.5703-0.98428-8.7891-0.98437-0.28127,0.00009-0.4219-0.18741-0.42188-0.5625l0.35156-1.6875c0.09373-0.3749,0.3281-0.5624,0.70312-0.5625h36.633c0.28119,0.0001,0.42182,0.1876,0.42188,0.5625l-0.35156,1.6875c-0.0938,0.37509-0.65631,0.56259-1.6875,0.5625-0.98444,0.00009-2.1798,0.11728-3.5859,0.35156-1.3594,0.1876-2.6016,0.63291-3.7266,1.3359-2.2969,1.4532-3.8672,4.2423-4.7109,8.3672-2.9063,13.734-5.3907,25.524-7.4531,35.367-2.0625,9.8438-3.8203,18.188-5.2734,25.031-1.4532,6.7969-2.6485,12.352-3.5859,16.664-0.89065,4.3125-1.6172,7.7813-2.1797,10.406-0.56252,2.6719-1.0313,4.7578-1.4062,6.2578-0.32815,1.5-0.75002,3.2812-1.2656,5.3438-0.51565,2.1094-1.336,4.6172-2.4609,7.5234-1.0781,2.9062-2.4375,5.6718-4.0781,8.2969-1.6406,2.6718-3.5625,5.1328-5.7656,7.3828-2.2031,2.2968-4.7578,4.2656-7.6641,5.9062-6.2344,3.5625-13.266,5.3437-21.094,5.3438-7.8281-0.00005-11.742-1.5-11.742-4.5"/>
   <path id="path3021" d="m212.59,266.17c0.42177,0.00001,0.63271,0.28125,0.63281,0.84375v1.2656c-0.0001,0.46875-0.30479,0.70312-0.91406,0.70312h-24.117c-0.60945-0.75-1.7344-2.1094-3.375-4.0781-1.6407-1.9688-3.5626-4.2891-5.7656-6.9609-2.2032-2.6719-4.6173-5.5547-7.2422-8.6484-2.5782-3.0937-5.1563-6.164-7.7344-9.2109-2.5313-3.0937-4.9688-6.0234-7.3125-8.7891-2.2969-2.8125-3.9375-4.7812-4.9219-5.9062-0.93754-1.1718-1.5938-1.9687-1.9688-2.3906-0.32817-0.42183-0.67973-0.82027-1.0547-1.1953-0.89066-0.89057-1.6875-1.3359-2.3906-1.3359-0.65629,0.00005-1.5,0.42192-2.5312,1.2656-1.0313,0.79692-1.7813,2.086-2.25,3.8672l-6.8906,32.133c-0.18752,0.75001-0.28127,1.6875-0.28125,2.8125-0.00002,1.125,0.42185,2.1094,1.2656,2.9531,0.84372,0.84375,1.9218,1.4531,3.2344,1.8281,1.7812,0.56251,4.6406,0.84376,8.5781,0.84375,0.28121,0.00001,0.42183,0.1875,0.42187,0.5625l-0.35156,1.6875c-0.14067,0.375-0.3516,0.5625-0.63281,0.5625h-37.688c-0.32813,0-0.49219-0.1875-0.49219-0.5625l0.35156-1.6875c0.1875-0.375,0.75-0.56249,1.6875-0.5625,0.98437,0.00001,2.1562-0.0937,3.5156-0.28125,1.4062-0.23437,2.6484-0.70312,3.7266-1.4062,2.2969-1.5,3.8672-4.289,4.7109-8.3672l16.312-76.5c0.0937-0.46866,0.14059-1.0546,0.14062-1.7578-0.00003-0.70303-0.46878-1.4296-1.4062-2.1797-0.89065-0.79678-1.9922-1.4296-3.3047-1.8984-2.2031-0.74991-4.6875-1.1249-7.4531-1.125-0.28127,0.00009-0.42189-0.18741-0.42187-0.5625l0.35156-1.6875c0.0937-0.3749,0.3281-0.5624,0.70312-0.5625h36.633c0.2812,0.0001,0.42182,0.1876,0.42188,0.5625l-0.35156,1.6875c-0.0938,0.37509-0.65631,0.56259-1.6875,0.5625-0.98443,0.00009-2.1797,0.11728-3.5859,0.35156-1.3594,0.1876-2.5782,0.63291-3.6562,1.3359-2.3438,1.4532-4.0079,4.5235-4.9922,9.2109-0.98441,4.6407-1.875,8.7657-2.6719,12.375-0.75004,3.6094-1.3828,6.586-1.8984,8.9297-0.46879,2.2969-0.84379,4.0782-1.125,5.3438l-0.5625,2.8125c-0.23441,1.2657-0.18754,1.8985,0.14062,1.8984,0.32809,0.00005,0.9609-0.30463,1.8984-0.91406,0.93746-0.6562,1.9922-1.3828,3.1641-2.1797,1.1718-0.79682,2.2734-1.5702,3.3047-2.3203,1.0781-0.74994,2.039-1.4296,2.8828-2.0391,0.89058-0.60931,1.6875-1.1952,2.3906-1.7578,0.74995-0.56243,1.9921-1.4765,3.7266-2.7422,1.7812-1.2656,3.7499-2.6718,5.9062-4.2188,2.1562-1.5468,4.4062-3.164,6.75-4.8516,2.3906-1.6874,4.6406-3.2812,6.75-4.7812,2.1562-1.5468,4.1015-2.9296,5.8359-4.1484,1.7343-1.2187,2.9999-2.1093,3.7969-2.6719,0.7968-0.56241,1.4296-1.0312,1.8984-1.4062,0.46867-0.37491,0.84367-0.77335,1.125-1.1953,0.51554-0.74991,0.77335-1.8749,0.77344-3.375-0.00009-1.5468-0.30477-2.5312-0.91406-2.9531-0.60946-0.46865-1.6407-0.70303-3.0938-0.70312h-2.4609c-0.84383,0.00009-1.2657-0.30459-1.2656-0.91407v-1.125c-0.00007-0.51552,0.39836-0.77333,1.1953-0.77343h34.945c0.56238,0.0001,0.84363,0.25791,0.84375,0.77343v1.1953c-0.00012,0.56259-0.63293,0.84384-1.8984,0.84375-1.2189,0.00009-2.3673,0.11728-3.4453,0.35156-1.0314,0.1876-2.0157,0.46885-2.9531,0.84375-0.9376,0.32822-1.922,0.72666-2.9531,1.1953-1.0314,0.46885-2.1564,0.9376-3.375,1.4062-1.172,0.46884-2.3907,1.0313-3.6562,1.6875-1.2188,0.65634-2.7188,1.547-4.5,2.6719-3.0938,2.0157-6.4923,4.4063-10.195,7.1719-3.7032,2.7188-6.1641,4.5235-7.3828,5.4141-1.2188,0.8907-2.6719,1.9454-4.3594,3.1641-1.6876,1.1719-3.5157,2.461-5.4844,3.8672-1.9219,1.4063-3.8204,2.7891-5.6953,4.1484-1.8751,1.3126-3.6094,2.5313-5.2031,3.6562-1.5938,1.1251-2.8594,2.0391-3.7969,2.7422-0.89067,0.65631-1.336,1.1016-1.3359,1.3359-0.00005,0.51568,0.23433,1.0782,0.70313,1.6875,0.56245,0.70318,1.7109,2.086,3.4453,4.1484,1.7343,2.0626,3.8671,4.6407,6.3984,7.7344,2.5781,3.0938,5.2265,6.2578,7.9453,9.4922,7.7812,9.3282,12.492,14.953,14.133,16.875,1.6406,1.875,3.0702,3.5625,4.2891,5.0625,1.2187,1.4531,2.5546,2.8359,4.0078,4.1484,3.3749,3.1406,6.5155,4.711,9.4219,4.7109h4.6406"/>
  </g>
 </g>
</svg>
