<?xml version="1.0" encoding="UTF-8" standalone="no"?>
<!-- Created with Inkscape (http://www.inkscape.org/) -->

<svg
    xmlns:dc="http://purl.org/dc/elements/1.1/"
    xmlns:cc="http://creativecommons.org/ns#"
    xmlns:rdf="http://www.w3.org/1999/02/22-rdf-syntax-ns#"
    xmlns:svg="http://www.w3.org/2000/svg"
    xmlns="http://www.w3.org/2000/svg"
    xmlns:sodipodi="http://sodipodi.sourceforge.net/DTD/sodipodi-0.dtd"
    xmlns:inkscape="http://www.inkscape.org/namespaces/inkscape"
    width="464.48257"
    height="536.3429"
    id="svg2"
    version="1.1"
    inkscape:version="0.48.3.1 r9886"
    sodipodi:docname="s-hex.svg">
   <defs
       id="defs4" />
   <sodipodi:namedview
       id="base"
       pagecolor="#ffffff"
       bordercolor="#666666"
       borderopacity="1.0"
       inkscape:pageopacity="0.0"
       inkscape:pageshadow="2"
       inkscape:zoom="0.49497475"
       inkscape:cx="-269.34235"
       inkscape:cy="213.64705"
       inkscape:document-units="px"
       inkscape:current-layer="layer1"
       showgrid="false"
       fit-margin-top="0"
       fit-margin-left="0"
       fit-margin-right="0"
       fit-margin-bottom="0"
       inkscape:window-width="1276"
       inkscape:window-height="789"
       inkscape:window-x="0"
       inkscape:window-y="27"
       inkscape:window-maximized="0"
       inkscape:snap-center="true" />
   <metadata
       id="metadata7">
      <rdf:RDF>
         <cc:Work
             rdf:about="">
            <dc:format>image/svg+xml</dc:format>
            <dc:type
                rdf:resource="http://purl.org/dc/dcmitype/StillImage" />
            <dc:title></dc:title>
         </cc:Work>
      </rdf:RDF>
   </metadata>
   <g
       inkscape:label="Layer 1"
       inkscape:groupmode="layer"
       id="layer1"
       transform="translate(-14.872436,-158.04019)">
      <path
          sodipodi:type="star"
          style="fill:none;stroke:#000000;stroke-width:74.24121094;stroke-miterlimit:4;stroke-opacity:1;stroke-dasharray:none"
          id="path2985"
          sodipodi:sides="6"
          sodipodi:cx="362.85715"
          sodipodi:cy="532.36218"
          sodipodi:r1="454.86038"
          sodipodi:r2="393.92065"
          sodipodi:arg1="-2.6179939"
          sodipodi:arg2="-2.0943951"
          inkscape:flatsided="true"
          inkscape:rounded="0"
          inkscape:randomized="0"
          d="M -31.063504,304.932 362.85714,77.501801 756.77779,304.93198 756.7778,759.79236 362.85716,987.22256 -31.063494,759.79238 z"
          transform="matrix(0.53878429,0,0,0.53878429,51.61079,139.38478)" />
      <g
          transform="matrix(2.8352561,0,0,2.8352561,775.84348,-117.62184)"
          style="font-size:144px;font-style:normal;font-variant:normal;font-weight:normal;font-stretch:normal;line-height:125%;letter-spacing:0px;word-spacing:0px;fill:#000000;fill-opacity:1;stroke:none;font-family:Open Sans;-inkscape-font-specification:Open Sans"
          id="flowRoot3960">
         <path
             d="m -154.14062,215.89363 c -8e-5,9.04689 -3.28132,16.10157 -9.84375,21.16406 -6.56256,5.0625 -15.4688,7.59375 -26.71875,7.59375 -12.18753,0 -21.56252,-1.57031 -28.125,-4.71093 l 0,-11.53125 c 4.21873,1.78126 8.81248,3.18751 13.78125,4.21875 4.96872,1.03126 9.89059,1.54688 14.76562,1.54687 7.96871,1e-5 13.9687,-1.49999 18,-4.5 4.03119,-3.04686 6.04681,-7.2656 6.04688,-12.65625 -7e-5,-3.56247 -0.72663,-6.46872 -2.17969,-8.71875 -1.40631,-2.29684 -3.79693,-4.40621 -7.17188,-6.32812 -3.32817,-1.92184 -8.4141,-4.10152 -15.25781,-6.53907 -9.56253,-3.42182 -16.40627,-7.4765 -20.53125,-12.16406 -4.07814,-4.68743 -6.1172,-10.80462 -6.11719,-18.35156 -1e-5,-7.92179 2.97655,-14.22647 8.92969,-18.91406 5.9531,-4.6874 13.82809,-7.03115 23.625,-7.03125 10.2187,1e-4 19.61713,1.8751 28.19531,5.625 l -3.72656,10.40625 c -8.48443,-3.56241 -16.73442,-5.34366 -24.75,-5.34375 -6.32816,9e-5 -11.27347,1.35946 -14.83594,4.07812 -3.56252,2.71884 -5.34377,6.49227 -5.34375,11.32031 -2e-5,3.56258 0.65623,6.49226 1.96875,8.78907 1.31248,2.25006 3.5156,4.336 6.60938,6.25781 3.14059,1.87506 7.92184,3.96099 14.34375,6.25781 10.78119,3.8438 18.18744,7.9688 22.21875,12.375 4.07805,4.40629 6.11711,10.12504 6.11719,17.15625"
             style=""
             id="path3988" />
      </g>
   </g>
</svg>
